<svg version="1.1" id="Layer_1" xmlns="http://www.w3.org/2000/svg" xmlns:xlink="http://www.w3.org/1999/xlink" x="0px" y="0px"
	 width="100%" viewBox="0 0 480 656" enable-background="new 0 0 480 656" xml:space="preserve">
<path fill="#000000" opacity="1.000000" stroke="none" 
	d="
M359.791687,84.245590 
	C370.789734,100.175644 377.935669,117.408493 383.341187,135.581512 
	C388.230591,152.019470 385.907257,168.599396 385.882996,185.155869 
	C385.851868,206.402237 377.616211,225.300003 368.982117,244.131592 
	C364.717621,253.432663 357.142090,260.154114 351.458496,268.325562 
	C346.918732,274.852539 340.704285,279.642578 334.718170,284.679413 
	C332.835541,286.263519 331.010254,287.915710 328.739655,289.903687 
	C340.003784,289.957184 347.411713,296.356903 354.753296,302.838776 
	C365.958405,312.731720 372.569458,325.567413 377.332214,339.374146 
	C381.938171,352.726379 387.654022,365.730286 390.701447,379.586700 
	C391.913696,385.098633 392.490295,390.719421 392.341003,396.425446 
	C392.176086,402.728882 394.648499,408.700806 394.503357,415.153992 
	C394.243134,426.724243 392.478394,437.984467 389.723450,449.143860 
	C386.519806,462.120758 378.701508,472.137085 368.880066,480.731262 
	C364.156219,484.864807 361.928528,485.049744 352.491333,483.528168 
	C350.892426,485.149139 351.396912,487.257477 351.384705,489.176636 
	C351.268311,507.497528 352.019897,525.863953 350.145355,544.109131 
	C349.080841,554.469971 349.606171,564.875183 347.055939,575.283569 
	C345.002655,583.663757 344.759277,592.685852 343.344971,601.375671 
	C343.078735,603.011475 342.999573,604.782532 342.292084,606.225403 
	C336.004547,619.047974 329.794891,631.690002 319.252167,642.071106 
	C310.701691,650.490601 295.208801,649.947693 285.936707,644.633423 
	C279.155243,640.746521 274.875305,634.903564 270.796509,628.475525 
	C263.457153,616.909119 260.554108,604.083435 258.653839,590.843018 
	C257.969269,586.073181 256.858276,581.538696 254.164047,577.275391 
	C251.494156,573.050476 250.813904,568.197449 251.388229,562.925842 
	C252.507553,552.651794 251.819672,542.288269 251.499039,531.966492 
	C251.403305,528.885010 249.717743,527.114075 246.340332,527.207214 
	C242.344070,527.317444 238.322800,527.464905 234.347778,527.149658 
	C229.934937,526.799866 227.822830,528.547546 227.596191,532.914917 
	C227.103668,542.405457 226.652649,551.956848 227.685944,561.365906 
	C228.419785,568.048401 227.516739,573.860474 223.974579,579.418335 
	C220.529190,584.824463 220.258484,591.214172 219.614578,597.169861 
	C218.014465,611.969666 211.878204,624.872864 203.157166,636.241272 
	C194.633194,647.352783 179.804047,652.275024 166.533112,646.664612 
	C163.010742,645.175476 159.973312,642.052551 157.293365,639.144958 
	C147.697067,628.733582 140.396194,616.720947 136.533447,603.169250 
	C134.101242,594.636230 133.841736,585.465698 132.464737,576.634399 
	C127.788345,546.642700 127.957214,516.462952 127.620415,486.279266 
	C127.611618,485.490753 127.302864,484.705566 127.102234,483.770874 
	C108.183777,487.454498 100.615288,472.993835 94.510628,460.764160 
	C85.133034,441.977631 82.157166,421.318665 86.736450,400.048035 
	C87.961845,394.356110 87.101944,388.208344 88.099541,382.294861 
	C90.531517,367.878754 96.950447,354.771484 101.452881,341.041138 
	C106.114571,326.825165 112.935768,313.739319 124.066452,303.332397 
	C129.196442,298.535980 134.647797,294.175079 141.258087,291.539429 
	C143.877609,290.494934 146.552658,289.586273 150.624466,290.415283 
	C147.915787,287.827972 146.144348,285.690155 143.962158,284.125061 
	C131.384903,275.104645 121.599617,263.072174 114.052483,250.212784 
	C103.054703,231.473938 94.364395,211.290451 93.650848,188.766113 
	C93.413956,181.288071 93.141304,173.792053 92.683899,166.336777 
	C91.362923,144.805695 98.373131,125.511948 106.967880,106.345985 
	C113.818268,91.069862 123.628586,77.830742 134.258453,65.296791 
	C141.766083,56.444344 151.557236,49.486732 161.466202,43.487411 
	C180.485550,31.972263 200.698730,23.872892 223.367096,21.275520 
	C246.344055,18.642786 268.227936,21.644171 289.492676,29.251846 
	C306.969727,35.504425 322.336456,45.814323 336.815521,57.608158 
	C346.084290,65.157944 352.066711,75.123093 359.791687,84.245590 
M156.390289,280.197144 
	C156.603714,284.548157 158.703156,287.671234 162.366455,289.990967 
	C164.167191,291.131256 165.840179,292.600128 167.245224,294.205444 
	C168.894821,296.090179 170.542297,298.396057 168.761917,300.937714 
	C166.833710,303.690460 164.162720,302.396545 162.031708,301.191833 
	C157.277420,298.504089 152.887878,298.881927 148.438400,301.844482 
	C146.792419,302.940399 144.875870,303.632690 143.074951,304.492828 
	C131.752106,309.900482 124.627167,319.582581 118.423508,329.812988 
	C114.104095,336.936066 113.971527,346.056946 110.046364,353.216309 
	C104.529060,363.279633 105.750664,374.289673 103.230698,384.702209 
	C102.372795,388.247070 104.291779,390.277130 108.054642,390.722809 
	C112.843788,391.290039 117.601234,392.133972 122.365082,392.903595 
	C128.461044,393.888458 131.016861,392.476807 132.466965,386.398834 
	C134.743790,376.855682 136.421082,367.166016 138.821259,357.656799 
	C141.021439,348.939880 141.009308,339.805023 144.185669,331.283661 
	C145.427292,327.952759 147.562927,326.199829 150.961441,326.880707 
	C154.202377,327.529999 156.122284,329.859985 156.231842,333.283051 
	C156.273529,334.584930 156.017731,335.936798 155.671860,337.204315 
	C152.606659,348.438019 149.416199,359.637939 146.407822,370.886627 
	C142.188187,386.664368 139.876968,402.772583 138.265259,419.001038 
	C137.844284,423.239838 139.709427,424.695343 143.720627,424.546051 
	C169.677597,423.580200 195.638504,423.048798 221.611557,423.988251 
	C224.427582,424.090088 227.277542,423.879700 230.080643,423.549866 
	C233.332123,423.167236 234.988571,421.391541 234.970734,417.849152 
	C234.821442,388.188446 234.755051,358.527222 234.718842,328.866089 
	C234.714600,325.385742 233.161087,323.737091 229.744217,323.290955 
	C225.458542,322.731323 221.167267,322.062439 216.961044,321.085114 
	C211.727036,319.869019 206.849533,317.844849 203.017426,313.778198 
	C200.985672,311.622101 199.698364,309.213318 201.474884,306.662018 
	C203.620560,303.580597 206.249237,305.577087 208.493271,306.913544 
	C214.147659,310.281250 220.297134,312.353027 226.682312,313.577057 
	C231.079117,314.419891 232.556396,312.672852 230.808395,308.694153 
	C228.940903,304.443359 228.256836,300.248657 228.587204,295.631714 
	C228.939301,290.711090 226.945435,286.956787 221.831146,285.264526 
	C218.678757,284.221436 215.681381,282.716858 212.591522,281.476501 
	C200.494476,276.620300 188.997955,270.849518 178.696472,262.600616 
	C173.460724,258.408081 168.503586,253.844635 162.850296,249.971451 
	C165.212021,255.703400 168.730881,260.579102 173.455307,264.402893 
	C179.463058,269.265289 183.119614,275.753204 186.833450,282.266418 
	C188.612305,285.386169 186.683960,287.313904 184.626328,289.100433 
	C182.417343,291.018311 180.161591,290.365570 178.420044,288.456451 
	C170.797531,280.100403 163.150101,271.768707 157.202469,262.045502 
	C148.993393,248.625122 143.058777,234.105621 137.209991,219.619308 
	C131.135895,204.574936 127.616180,188.528000 127.258865,172.445389 
	C126.722443,148.300827 129.565506,124.314270 137.599991,101.255936 
	C138.250732,99.388351 138.671341,97.716187 136.604858,96.463043 
	C134.633301,95.267464 132.525528,94.559967 130.565842,96.155136 
	C129.178116,97.284721 127.949280,98.738907 127.012794,100.270348 
	C123.537689,105.953224 119.778793,111.521645 116.929176,117.514725 
	C112.117477,127.634315 108.120407,137.990906 111.516785,149.682602 
	C112.853249,154.283234 112.465446,159.182236 112.441605,164.039459 
	C112.371323,178.357742 113.752464,192.550262 117.943130,206.394928 
	C121.124443,216.904938 125.367355,227.044586 128.598206,237.498642 
	C131.803513,247.870071 136.656067,257.105072 145.609329,263.033752 
	C151.955368,267.235992 155.086121,272.473114 156.390289,280.197144 
M328.587982,484.783875 
	C340.421814,483.217438 344.857025,478.297516 345.039337,466.529968 
	C345.059998,465.197083 345.067108,463.863953 345.077820,462.530914 
	C345.192688,448.216034 345.188873,448.024597 330.840393,448.301727 
	C305.860901,448.784210 280.887604,449.604645 255.906113,448.383209 
	C253.596268,448.270264 251.258087,448.582153 248.941727,448.792389 
	C244.982925,449.151733 243.063843,451.089661 243.259674,455.342834 
	C243.588882,462.492126 243.139252,469.659271 243.797348,476.818634 
	C244.113907,480.262543 244.637543,483.775665 243.567307,487.246552 
	C242.944092,489.267670 241.804214,490.395569 239.631866,490.312439 
	C237.579575,490.233887 236.083237,489.334473 235.601059,487.263947 
	C235.302155,485.980499 234.968811,484.603241 235.133835,483.330688 
	C235.995544,476.685333 235.573059,470.016052 235.647217,463.360229 
	C235.814819,448.317627 235.755737,447.980621 220.583206,448.429596 
	C198.929901,449.070312 177.295135,448.841766 155.652420,448.279724 
	C151.655823,448.175934 147.649826,448.122162 143.656448,448.269562 
	C134.349792,448.613098 133.872406,449.168427 133.944397,458.254303 
	C133.987961,463.752930 134.017426,469.251678 134.041183,474.750427 
	C134.053543,477.612305 134.297028,480.458374 135.704132,482.997986 
	C138.359299,487.790131 138.595795,492.832062 137.509705,498.037384 
	C135.423538,508.036102 134.739624,518.135254 135.197449,528.328064 
	C135.318161,531.015869 135.401001,533.800903 137.013962,535.999878 
	C139.148651,538.910095 140.175613,542.168091 141.160675,545.546326 
	C144.635025,557.461365 149.739197,560.692871 162.078079,559.666504 
	C176.157074,558.495239 190.249832,557.200317 204.285706,560.493103 
	C209.029861,561.606079 211.701141,559.401123 211.918808,554.529663 
	C212.111176,550.224182 212.505310,545.836975 211.026443,541.641296 
	C209.867599,538.353455 210.573410,535.377441 212.378769,532.605286 
	C218.213318,523.646484 224.084412,514.829224 235.174728,511.331848 
	C238.612259,510.247803 241.779221,508.305267 245.400513,507.456421 
	C248.464996,506.738129 251.487289,505.603577 253.311264,502.649811 
	C254.711594,500.382141 256.929688,500.018005 259.384735,499.961060 
	C265.093597,499.828613 270.207367,502.016205 275.157410,504.309601 
	C282.498413,507.710754 288.830536,505.806458 293.799805,500.492493 
	C298.423462,495.548157 303.474854,490.904297 307.159943,485.060181 
	C311.059265,478.876312 315.649048,478.149658 321.843292,482.378021 
	C323.680725,483.632324 325.571777,484.552765 328.587982,484.783875 
M283.334717,273.955292 
	C274.833679,278.611633 265.647675,281.708282 256.776611,285.515442 
	C252.015610,287.558655 249.987610,291.111969 250.767380,295.768616 
	C251.632751,300.936340 250.298447,305.273163 247.786789,309.543427 
	C247.142685,310.638519 246.066498,311.700073 247.001892,313.261932 
	C249.177734,314.555450 251.493240,313.930603 253.709229,313.320496 
	C259.970703,311.596527 266.165894,309.707855 271.737457,306.171600 
	C273.555328,305.017822 275.878693,303.971313 277.613770,306.183899 
	C279.369904,308.423248 279.029083,310.897980 277.083038,312.997040 
	C275.153687,315.078094 273.019257,316.862274 270.428833,318.178619 
	C264.201324,321.343079 257.387177,322.266724 250.662277,323.144348 
	C245.690247,323.793182 244.294449,326.110718 244.305527,330.724304 
	C244.372345,358.557068 244.268356,386.390167 244.229050,414.223175 
	C244.216766,422.919312 245.025604,423.868744 253.893692,423.916687 
	C268.034851,423.993195 282.153564,422.886719 296.322632,423.586395 
	C309.461731,424.235199 322.657410,423.399719 335.792572,424.520355 
	C339.843475,424.865967 341.215912,423.254211 340.845581,419.346497 
	C339.306244,403.103577 337.074768,386.981781 332.756714,371.211395 
	C329.591919,359.652954 326.285706,348.132599 323.202545,336.552673 
	C321.823029,331.371368 323.808258,327.420624 327.997101,326.612152 
	C332.235901,325.794067 334.828613,328.023560 336.055023,331.816406 
	C337.249481,331.525696 337.545349,330.795715 337.397247,330.190613 
	C336.143738,325.067902 335.653809,319.725464 331.909454,315.431152 
	C329.188782,312.310883 326.125671,309.325439 324.488007,305.431946 
	C322.791565,301.398621 320.244934,300.236603 316.167145,301.888702 
	C314.156189,302.703400 311.801239,303.283478 310.253662,301.042847 
	C308.640350,298.707001 309.847443,296.595123 311.357178,294.679596 
	C312.179352,293.636414 312.881866,292.292786 313.972626,291.703949 
	C318.132812,289.458099 319.508698,285.721924 320.031372,281.416718 
	C320.449158,277.975616 322.636292,275.997986 325.312897,273.993286 
	C331.454773,269.393127 336.855988,264.048615 339.620453,256.582764 
	C344.479828,243.459244 349.561066,230.414963 354.218658,217.220749 
	C356.929932,209.540039 361.277954,202.056656 361.553406,193.953262 
	C362.166779,175.906479 364.236542,157.670303 357.843842,139.995560 
	C355.692078,134.046356 352.009216,128.810120 350.449707,122.614304 
	C349.923737,120.524635 349.753174,118.033539 346.877869,115.966248 
	C347.898773,123.652390 348.523956,130.575012 349.777191,137.381958 
	C353.635834,158.339554 352.407074,179.027496 347.933746,199.783066 
	C344.739258,214.604858 338.333557,228.100723 332.498444,241.874496 
	C325.125031,259.279327 314.432404,274.422668 301.172760,287.811951 
	C299.164368,289.839966 296.990265,291.347260 294.232452,289.014832 
	C291.715088,286.885712 290.278473,284.583984 292.647766,281.314362 
	C294.397003,278.900482 295.763702,276.213409 297.411346,273.721161 
	C302.504486,266.017090 310.752197,261.141479 315.747711,253.347641 
	C316.834930,251.651398 318.931732,250.322632 317.795410,246.473495 
	C307.672485,257.765198 296.448853,266.498108 283.334717,273.955292 
M198.348175,157.906189 
	C198.887802,161.525024 201.763031,161.041138 204.158676,161.045456 
	C227.635727,161.087692 251.113464,160.978088 274.589569,161.130981 
	C279.428375,161.162506 280.958405,159.252975 280.937622,154.611404 
	C280.832550,131.135025 280.887329,107.657402 281.021393,84.180984 
	C281.045074,80.040733 279.780029,78.186111 275.301605,78.212173 
	C251.492294,78.350777 227.681168,78.335289 203.871933,78.179916 
	C199.451874,78.151085 198.142685,79.840012 198.169662,84.085823 
	C198.324081,108.394478 198.268951,132.704468 198.348175,157.906189 
M351.392639,403.016663 
	C349.718933,406.022034 350.157043,409.077850 351.091370,412.185547 
	C352.140137,415.673889 353.363983,419.101471 353.303467,422.861786 
	C353.110992,434.823425 354.826782,446.734528 354.337067,458.710968 
	C354.292175,459.808350 354.041870,461.089264 355.539368,462.003815 
	C359.338470,459.949097 362.091736,456.826263 364.104645,452.902405 
	C369.785370,441.828674 372.540955,429.838684 374.865143,417.768097 
	C375.737610,413.236908 377.409149,408.787598 377.060699,404.033203 
	C376.880524,401.574402 376.417847,398.629486 373.615784,398.822571 
	C366.284912,399.327728 358.609161,398.235626 351.392639,403.016663 
M107.077217,427.344055 
	C108.271675,436.452972 109.512718,445.551361 115.218338,453.236694 
	C117.310196,456.054413 119.576660,458.656677 123.274696,459.038971 
	C124.950485,457.584808 124.625801,455.825439 124.729134,454.203491 
	C125.667717,439.472229 124.683212,424.629944 128.508545,410.069672 
	C130.269638,403.366394 128.119583,400.977539 121.190140,399.784149 
	C116.618393,398.996765 111.940117,398.784729 107.299431,398.459106 
	C104.973488,398.295868 102.449554,398.220490 101.145554,400.727966 
	C99.770012,403.372986 99.256683,406.264069 101.354599,408.728027 
	C105.744064,413.883362 106.678207,420.053619 107.077217,427.344055 
M347.494934,345.970642 
	C344.597839,342.121063 342.628784,337.471222 338.042572,334.508453 
	C336.757233,337.178497 337.165375,339.510284 337.585419,341.703705 
	C339.955688,354.080536 342.292664,366.467438 344.940002,378.786652 
	C348.353241,394.669952 348.525085,394.677490 364.383057,391.550018 
	C365.034576,391.421509 365.672913,391.223663 366.326080,391.106293 
	C369.498993,390.536072 370.308289,388.577698 369.689270,385.634216 
	C368.383118,379.423248 366.950226,373.330994 362.115021,368.644226 
	C359.696289,366.299774 357.998474,363.240906 357.349487,359.998749 
	C356.156677,354.040039 352.950623,349.718933 347.494934,345.970642 
M310.737732,529.255615 
	C300.926270,530.966431 298.581573,538.593079 297.301392,546.724792 
	C296.457733,552.083679 301.022064,557.689148 306.422150,558.303955 
	C311.855713,558.922546 317.308044,559.301575 322.677917,560.444641 
	C325.299896,561.002808 327.526215,560.028076 329.426758,558.111755 
	C333.473663,554.031128 333.840729,548.349121 330.057190,543.150024 
	C327.626831,539.810425 325.135468,536.520020 322.748169,533.151855 
	C320.263245,529.645935 316.278534,527.503235 310.737732,529.255615 
M304.105042,574.198120 
	C306.728088,579.583679 313.164520,582.944458 318.803741,581.872986 
	C323.454559,580.989319 327.597076,575.508301 325.909546,572.437744 
	C323.812134,568.621521 320.054413,568.875488 316.671234,569.231079 
	C312.409180,569.679016 307.143768,566.795471 304.219238,572.456421 
	C304.075775,572.734070 304.111603,573.104370 304.105042,574.198120 
M176.713181,575.712769 
	C182.144943,581.197937 188.285400,580.529053 194.589188,577.650330 
	C196.312363,576.863403 198.627350,576.139160 198.023911,573.496765 
	C197.454605,571.003845 195.750656,569.443787 193.084610,569.371643 
	C188.617126,569.250610 184.142044,569.092590 179.678741,569.229675 
	C175.668762,569.352844 174.253311,571.336426 176.713181,575.712769 
z"/>
<path fill="#000000" opacity="1.000000" stroke="none" 
	d="
M222.008926,87.765579 
	C236.825974,87.753334 251.147629,87.886826 265.462921,87.644234 
	C270.046387,87.566551 271.490753,89.081688 271.431030,93.657005 
	C271.202820,111.136879 271.215729,128.622589 271.404816,146.103241 
	C271.450348,150.313629 269.990173,151.488434 265.933624,151.448029 
	C248.452637,151.273880 230.966629,151.223831 213.487564,151.479141 
	C208.714233,151.548874 207.579010,149.764313 207.629242,145.374008 
	C207.825424,128.226349 207.879456,111.073372 207.649857,93.926880 
	C207.584427,89.040955 209.316574,87.271637 214.022507,87.721764 
	C216.497452,87.958496 219.013565,87.764847 222.008926,87.765579 
z"/>
</svg>